<svg xmlns="http://www.w3.org/2000/svg" viewBox="0 0 800 320" width="800" height="320">
  <defs>
    <linearGradient id="bg" x1="0" y1="0" x2="1" y2="1">
      <stop offset="0%" stop-color="#1a1b1e"/>
      <stop offset="100%" stop-color="#141517"/>
    </linearGradient>
  </defs>

  <rect width="800" height="320" rx="12" fill="url(#bg)"/>

  <!-- Column 1: Problem -->
  <rect x="30" y="60" width="230" height="220" rx="10" fill="#2c1517" stroke="#69383e" stroke-width="1.5"/>
  <text x="145" y="45" text-anchor="middle" font-family="system-ui, sans-serif" font-size="13" fill="#909296" font-weight="600" letter-spacing="1">PROBLEM</text>
  <rect x="95" y="85" width="100" height="70" rx="6" fill="none" stroke="#ff6b6b" stroke-width="1.5" opacity="0.5"/>
  <line x1="110" y1="100" x2="180" y2="100" stroke="#ff6b6b" stroke-width="1.5" opacity="0.25"/>
  <line x1="110" y1="112" x2="180" y2="112" stroke="#ff6b6b" stroke-width="1.5" opacity="0.25"/>
  <line x1="110" y1="124" x2="180" y2="124" stroke="#ff6b6b" stroke-width="1.5" opacity="0.25"/>
  <line x1="110" y1="136" x2="180" y2="136" stroke="#ff6b6b" stroke-width="1.5" opacity="0.25"/>
  <line x1="110" y1="160" x2="180" y2="160" stroke="#ff6b6b" stroke-width="1.5" opacity="0.4"/>
  <line x1="110" y1="172" x2="180" y2="172" stroke="#ff6b6b" stroke-width="1.5" opacity="0.4"/>
  <text x="145" y="205" text-anchor="middle" font-family="system-ui, sans-serif" font-size="14" fill="#c1c2c5" font-weight="600">Tool outputs overflow</text>
  <text x="145" y="224" text-anchor="middle" font-family="system-ui, sans-serif" font-size="12" fill="#909296">context windows</text>
  <text x="145" y="260" text-anchor="middle" font-family="system-ui, sans-serif" font-size="24" fill="#ff6b6b" font-weight="700">78%</text>
  <text x="145" y="275" text-anchor="middle" font-family="system-ui, sans-serif" font-size="11" fill="#909296">token waste on unused data</text>

  <path d="M 270 170 L 290 170" stroke="#5c5f66" stroke-width="2"/>
  <polygon points="290,165 300,170 290,175" fill="#5c5f66"/>

  <!-- Column 2: Solution -->
  <rect x="305" y="60" width="230" height="220" rx="10" fill="#172033" stroke="#3d5a80" stroke-width="1.5"/>
  <text x="420" y="45" text-anchor="middle" font-family="system-ui, sans-serif" font-size="13" fill="#909296" font-weight="600" letter-spacing="1">LRO SOLUTION</text>
  <rect x="355" y="85" width="60" height="50" rx="6" fill="none" stroke="#5c7cfa" stroke-width="1.5"/>
  <line x1="365" y1="100" x2="405" y2="100" stroke="#5c7cfa" stroke-width="1.5" opacity="0.3"/>
  <line x1="365" y1="112" x2="405" y2="112" stroke="#5c7cfa" stroke-width="1.5" opacity="0.3"/>
  <line x1="365" y1="124" x2="405" y2="124" stroke="#5c7cfa" stroke-width="1.5" opacity="0.3"/>
  <path d="M 420 110 L 445 110" stroke="#3bc9db" stroke-width="2"/>
  <polygon points="445,105 455,110 445,115" fill="#3bc9db"/>
  <rect x="460" y="90" width="50" height="40" rx="4" fill="none" stroke="#845ef7" stroke-width="1.5"/>
  <line x1="468" y1="103" x2="502" y2="103" stroke="#845ef7" stroke-width="1" opacity="0.3"/>
  <line x1="468" y1="113" x2="502" y2="113" stroke="#845ef7" stroke-width="1" opacity="0.3"/>
  <line x1="468" y1="123" x2="502" y2="123" stroke="#845ef7" stroke-width="1" opacity="0.3"/>
  <text x="420" y="165" text-anchor="middle" font-family="system-ui, sans-serif" font-size="14" fill="#c1c2c5" font-weight="600">Offload to file,</text>
  <text x="420" y="184" text-anchor="middle" font-family="system-ui, sans-serif" font-size="14" fill="#c1c2c5" font-weight="600">return descriptor</text>
  <text x="420" y="220" text-anchor="middle" font-family="system-ui, sans-serif" font-size="11" fill="#909296">Metadata + schema + recipes</text>
  <text x="420" y="260" text-anchor="middle" font-family="system-ui, sans-serif" font-size="24" fill="#5c7cfa" font-weight="700">95.6%</text>
  <text x="420" y="275" text-anchor="middle" font-family="system-ui, sans-serif" font-size="11" fill="#909296">task success rate</text>

  <path d="M 545 170 L 565 170" stroke="#5c5f66" stroke-width="2"/>
  <polygon points="565,165 575,170 565,175" fill="#5c5f66"/>

  <!-- Column 3: Result -->
  <rect x="580" y="60" width="190" height="220" rx="10" fill="#152218" stroke="#3d6e47" stroke-width="1.5"/>
  <text x="675" y="45" text-anchor="middle" font-family="system-ui, sans-serif" font-size="13" fill="#909296" font-weight="600" letter-spacing="1">RESULT</text>
  <rect x="635" y="85" width="80" height="60" rx="6" fill="none" stroke="#51cf66" stroke-width="1.5" opacity="0.5"/>
  <line x1="648" y1="100" x2="702" y2="100" stroke="#51cf66" stroke-width="1.5" opacity="0.25"/>
  <line x1="648" y1="112" x2="702" y2="112" stroke="#51cf66" stroke-width="1.5" opacity="0.25"/>
  <rect x="648" y="120" width="40" height="12" rx="3" fill="#3bc9db" opacity="0.2"/>
  <text x="675" y="180" text-anchor="middle" font-family="system-ui, sans-serif" font-size="14" fill="#c1c2c5" font-weight="600">On-demand access</text>
  <text x="675" y="199" text-anchor="middle" font-family="system-ui, sans-serif" font-size="12" fill="#909296">to full dataset</text>
  <text x="675" y="240" text-anchor="middle" font-family="system-ui, sans-serif" font-size="24" fill="#51cf66" font-weight="700">5x</text>
  <text x="675" y="255" text-anchor="middle" font-family="system-ui, sans-serif" font-size="11" fill="#909296">larger datasets handled</text>
  <text x="675" y="270" text-anchor="middle" font-family="system-ui, sans-serif" font-size="11" fill="#909296">within context limits</text>
</svg>
