<svg xmlns="http://www.w3.org/2000/svg" viewBox="0 0 800 320" width="800" height="320">
  <defs>
    <linearGradient id="bg" x1="0" y1="0" x2="1" y2="1">
      <stop offset="0%" stop-color="#f8f9fa"/>
      <stop offset="100%" stop-color="#e9ecef"/>
    </linearGradient>
  </defs>

  <rect width="800" height="320" rx="12" fill="url(#bg)"/>

  <!-- Three columns: Problem / Solution / Result -->

  <!-- Column 1: Problem -->
  <rect x="30" y="60" width="230" height="220" rx="10" fill="#fff5f5" stroke="#ffc9c9" stroke-width="1.5"/>
  <text x="145" y="45" text-anchor="middle" font-family="system-ui, sans-serif" font-size="13" fill="#868e96" font-weight="600" letter-spacing="1">PROBLEM</text>
  <!-- Overflowing context icon -->
  <rect x="95" y="85" width="100" height="70" rx="6" fill="none" stroke="#e03131" stroke-width="1.5" opacity="0.6"/>
  <line x1="110" y1="100" x2="180" y2="100" stroke="#e03131" stroke-width="1.5" opacity="0.3"/>
  <line x1="110" y1="112" x2="180" y2="112" stroke="#e03131" stroke-width="1.5" opacity="0.3"/>
  <line x1="110" y1="124" x2="180" y2="124" stroke="#e03131" stroke-width="1.5" opacity="0.3"/>
  <line x1="110" y1="136" x2="180" y2="136" stroke="#e03131" stroke-width="1.5" opacity="0.3"/>
  <!-- Overflow lines below box -->
  <line x1="110" y1="160" x2="180" y2="160" stroke="#e03131" stroke-width="1.5" opacity="0.5"/>
  <line x1="110" y1="172" x2="180" y2="172" stroke="#e03131" stroke-width="1.5" opacity="0.5"/>
  <text x="145" y="205" text-anchor="middle" font-family="system-ui, sans-serif" font-size="14" fill="#495057" font-weight="600">Tool outputs overflow</text>
  <text x="145" y="224" text-anchor="middle" font-family="system-ui, sans-serif" font-size="12" fill="#868e96">context windows</text>
  <text x="145" y="260" text-anchor="middle" font-family="system-ui, sans-serif" font-size="24" fill="#e03131" font-weight="700">78%</text>
  <text x="145" y="275" text-anchor="middle" font-family="system-ui, sans-serif" font-size="11" fill="#868e96">token waste on unused data</text>

  <!-- Arrow 1 -->
  <path d="M 270 170 L 290 170" stroke="#adb5bd" stroke-width="2"/>
  <polygon points="290,165 300,170 290,175" fill="#adb5bd"/>

  <!-- Column 2: Solution (LRO) -->
  <rect x="305" y="60" width="230" height="220" rx="10" fill="#e7f5ff" stroke="#a5d8ff" stroke-width="1.5"/>
  <text x="420" y="45" text-anchor="middle" font-family="system-ui, sans-serif" font-size="13" fill="#868e96" font-weight="600" letter-spacing="1">LRO SOLUTION</text>
  <!-- Offload icon -->
  <rect x="355" y="85" width="60" height="50" rx="6" fill="none" stroke="#4263eb" stroke-width="1.5"/>
  <line x1="365" y1="100" x2="405" y2="100" stroke="#4263eb" stroke-width="1.5" opacity="0.4"/>
  <line x1="365" y1="112" x2="405" y2="112" stroke="#4263eb" stroke-width="1.5" opacity="0.4"/>
  <line x1="365" y1="124" x2="405" y2="124" stroke="#4263eb" stroke-width="1.5" opacity="0.4"/>
  <!-- Arrow to file -->
  <path d="M 420 110 L 445 110" stroke="#22b8cf" stroke-width="2"/>
  <polygon points="445,105 455,110 445,115" fill="#22b8cf"/>
  <!-- File -->
  <rect x="460" y="90" width="50" height="40" rx="4" fill="none" stroke="#7950f2" stroke-width="1.5"/>
  <line x1="468" y1="103" x2="502" y2="103" stroke="#7950f2" stroke-width="1" opacity="0.4"/>
  <line x1="468" y1="113" x2="502" y2="113" stroke="#7950f2" stroke-width="1" opacity="0.4"/>
  <line x1="468" y1="123" x2="502" y2="123" stroke="#7950f2" stroke-width="1" opacity="0.4"/>
  <text x="420" y="165" text-anchor="middle" font-family="system-ui, sans-serif" font-size="14" fill="#495057" font-weight="600">Offload to file,</text>
  <text x="420" y="184" text-anchor="middle" font-family="system-ui, sans-serif" font-size="14" fill="#495057" font-weight="600">return descriptor</text>
  <text x="420" y="220" text-anchor="middle" font-family="system-ui, sans-serif" font-size="11" fill="#868e96">Metadata + schema + recipes</text>
  <text x="420" y="260" text-anchor="middle" font-family="system-ui, sans-serif" font-size="24" fill="#4263eb" font-weight="700">95.6%</text>
  <text x="420" y="275" text-anchor="middle" font-family="system-ui, sans-serif" font-size="11" fill="#868e96">task success rate</text>

  <!-- Arrow 2 -->
  <path d="M 545 170 L 565 170" stroke="#adb5bd" stroke-width="2"/>
  <polygon points="565,165 575,170 565,175" fill="#adb5bd"/>

  <!-- Column 3: Result -->
  <rect x="580" y="60" width="190" height="220" rx="10" fill="#ebfbee" stroke="#b2f2bb" stroke-width="1.5"/>
  <text x="675" y="45" text-anchor="middle" font-family="system-ui, sans-serif" font-size="13" fill="#868e96" font-weight="600" letter-spacing="1">RESULT</text>
  <!-- Slim context icon -->
  <rect x="635" y="85" width="80" height="60" rx="6" fill="none" stroke="#2f9e44" stroke-width="1.5" opacity="0.6"/>
  <line x1="648" y1="100" x2="702" y2="100" stroke="#2f9e44" stroke-width="1.5" opacity="0.3"/>
  <line x1="648" y1="112" x2="702" y2="112" stroke="#2f9e44" stroke-width="1.5" opacity="0.3"/>
  <rect x="648" y="120" width="40" height="12" rx="3" fill="#22b8cf" opacity="0.25"/>
  <text x="675" y="180" text-anchor="middle" font-family="system-ui, sans-serif" font-size="14" fill="#495057" font-weight="600">On-demand access</text>
  <text x="675" y="199" text-anchor="middle" font-family="system-ui, sans-serif" font-size="12" fill="#868e96">to full dataset</text>
  <text x="675" y="240" text-anchor="middle" font-family="system-ui, sans-serif" font-size="24" fill="#2f9e44" font-weight="700">5x</text>
  <text x="675" y="255" text-anchor="middle" font-family="system-ui, sans-serif" font-size="11" fill="#868e96">larger datasets handled</text>
  <text x="675" y="270" text-anchor="middle" font-family="system-ui, sans-serif" font-size="11" fill="#868e96">within context limits</text>
</svg>
